<?xml version="1.0" encoding="iso-8859-1"?>
<!-- Generator: Adobe Illustrator 19.0.0, SVG Export Plug-In . SVG Version: 6.00 Build 0)  -->
<svg version="1.1" id="Layer_1" xmlns="http://www.w3.org/2000/svg" xmlns:xlink="http://www.w3.org/1999/xlink" x="0px" y="0px"
	 viewBox="0 0 511.999 511.999" style="enable-background:new 0 0 511.999 511.999;" xml:space="preserve">
<g>
	<g>
		<path d="M408.385,8.491c-10.078,0-19.862,2.799-28.32,7.934c-8.458-5.133-18.244-7.934-28.32-7.934
			c-30.098,0-54.585,24.487-54.585,54.586c0,29.059,26.514,53.293,49.613,71.158c9.991,7.727,23.628,16.591,24.203,16.965
			l9.089,5.899l9.089-5.898c0.574-0.373,14.214-9.238,24.202-16.966c23.1-17.864,49.615-42.096,49.615-71.158
			C462.971,32.978,438.484,8.491,408.385,8.491z"/>
	</g>
</g>
<g>
	<g>
		<path d="M467.246,206.781c-7.384,0-14.576,1.832-20.971,5.226c-6.394-3.394-13.587-5.226-20.972-5.226
			c-24.676,0-44.752,20.076-44.752,44.753c0,23.402,20.532,42.283,38.421,56.121c7.538,5.828,17.782,12.488,18.213,12.769l9.09,5.9
			l9.09-5.9c0.432-0.281,10.676-6.94,18.212-12.77c17.888-13.834,38.422-32.716,38.422-56.12
			C511.999,226.857,491.922,206.781,467.246,206.781z"/>
	</g>
</g>
<g>
	<g>
		<path d="M319.535,168.471L76.036,206.487v203.668c-5.065-1.436-10.473-2.188-16.048-2.188c-13.885,0-27.619,4.521-38.676,12.731
			c-12.357,9.176-20.075,22.195-21.177,35.718c-1.105,13.538,4.611,26.87,15.295,35.665c8.954,7.369,21.038,11.428,34.026,11.428
			c6.036,0,12.107-0.872,18.047-2.592c20.227-5.86,41.965-23.843,41.923-49.481h0.001V285.673l176.717-27.59v119.269
			c-5.067-1.436-10.473-2.188-16.049-2.188c-13.886,0-27.62,4.521-38.673,12.729c-12.357,9.173-20.076,22.192-21.18,35.719
			c-1.105,13.537,4.611,26.87,15.295,35.666c8.953,7.368,21.038,11.427,34.026,11.427c6.04,0,12.113-0.873,18.045-2.591
			c20.227-5.859,41.965-23.839,41.926-49.481h0.001v-0.051h0.001L319.535,168.471z"/>
	</g>
</g>
<g>
</g>
<g>
</g>
<g>
</g>
<g>
</g>
<g>
</g>
<g>
</g>
<g>
</g>
<g>
</g>
<g>
</g>
<g>
</g>
<g>
</g>
<g>
</g>
<g>
</g>
<g>
</g>
<g>
</g>
</svg>
